<svg width="24" height="24" viewBox="0 0 24 24" fill="none" xmlns="http://www.w3.org/2000/svg">
<path d="M18 11L12 16L6 11" stroke="#1199FA" stroke-width="1.5" stroke-linecap="round" stroke-linejoin="round"/>
<path d="M12 15L12 2" stroke="#1199FA" stroke-width="1.5" stroke-linecap="round" stroke-linejoin="round"/>
<path d="M2.75 17C2.75 16.5858 2.41421 16.25 2 16.25C1.58579 16.25 1.25 16.5858 1.25 17H2.75ZM2 21H1.25C1.25 21.4142 1.58579 21.75 2 21.75V21ZM22 21V21.75C22.4142 21.75 22.75 21.4142 22.75 21H22ZM22.75 17C22.75 16.5858 22.4142 16.25 22 16.25C21.5858 16.25 21.25 16.5858 21.25 17H22.75ZM1.25 17V21H2.75V17H1.25ZM2 21.75H22V20.25H2V21.75ZM22.75 21V17H21.25V21H22.75Z" fill="#1199FA"/>
</svg>
