<svg width="24" height="24" viewBox="0 0 24 24" fill="none" xmlns="http://www.w3.org/2000/svg">
<path fill-rule="evenodd" clip-rule="evenodd" d="M11.4697 0.46967C11.7626 0.176777 12.2374 0.176777 12.5303 0.46967L15.5303 3.46967C15.8232 3.76256 15.8232 4.23744 15.5303 4.53033C15.2374 4.82322 14.7626 4.82322 14.4697 4.53033L12.75 2.81066V15.0625C12.75 15.625 12.45 16 12 16C11.55 16 11.25 15.625 11.25 15.0625V2.81066L9.53033 4.53033C9.23744 4.82322 8.76256 4.82322 8.46967 4.53033C8.17678 4.23744 8.17678 3.76256 8.46967 3.46967L11.4697 0.46967ZM8.03186 8.75H3.75V21.25H20.25V8.75H15.9909C15.5767 8.75 15.2409 8.41421 15.2409 8C15.2409 7.58579 15.5767 7.25 15.9909 7.25H21C21.4142 7.25 21.75 7.58579 21.75 8V22C21.75 22.4142 21.4142 22.75 21 22.75H3C2.58579 22.75 2.25 22.4142 2.25 22V8C2.25 8 2.34563 7.65437 2.5 7.5C2.65437 7.34563 3 7.25 3 7.25H8.03186C8.44607 7.25 8.78186 7.58579 8.78186 8C8.78186 8.41421 8.44607 8.75 8.03186 8.75Z" fill="#1199FA"/>
</svg>
