<svg width="169" height="34" viewBox="0 0 169 34" fill="none" xmlns="http://www.w3.org/2000/svg">
<g id="Logo/Main/Horizontal">
<g id="Logo">
<g id="logotype">
<path id="Fill 1" fill-rule="evenodd" clip-rule="evenodd" d="M43.636 24.6166C39.939 24.6166 37.207 21.7206 37.207 18.1636C37.207 14.6066 39.939 11.6396 43.659 11.6396C46.015 11.6396 47.475 12.5116 48.629 13.7836L46.863 15.6906C45.991 14.7726 45.073 14.1366 43.636 14.1366C41.563 14.1366 40.056 15.9266 40.056 18.1166C40.056 20.3536 41.587 22.1436 43.777 22.1436C45.12 22.1436 46.109 21.5076 47.004 20.5896L48.723 22.2846C47.499 23.6506 46.062 24.6166 43.636 24.6166Z" fill="#1E3F6F"/>
<path id="Fill 3" fill-rule="evenodd" clip-rule="evenodd" d="M54.1312 24.6162H51.2822V11.6632H54.1312V14.7012C54.9082 12.8402 56.3452 11.5682 58.5352 11.6632V14.6782H58.3702C55.8742 14.6782 54.1312 16.3032 54.1312 19.6002V24.6162Z" fill="#1E3F6F"/>
<path id="Fill 5" fill-rule="evenodd" clip-rule="evenodd" d="M73.4521 11.6396L67.1551 28.1036H64.2661L65.6421 24.6206L60.2471 11.6396H63.2851L66.9661 21.2276L70.5001 11.6396H73.4521Z" fill="#1E3F6F"/>
<path id="Fill 7" fill-rule="evenodd" clip-rule="evenodd" d="M81.8591 14.1126C79.9281 14.1126 78.2321 15.6906 78.2321 18.1166C78.2321 20.5426 79.9281 22.1196 81.8591 22.1196C83.8141 22.1196 85.4151 20.5896 85.4151 18.1166C85.4151 15.6666 83.7901 14.1126 81.8591 14.1126ZM82.5181 24.5926C80.4701 24.5926 79.1741 23.5566 78.3021 22.4026V28.1026H75.4531V11.6396H78.3021V13.9706C79.2211 12.6756 80.5171 11.6396 82.5181 11.6396C85.4621 11.6396 88.3121 13.9706 88.3121 18.1166C88.3121 22.2616 85.4861 24.5926 82.5181 24.5926Z" fill="#1E3F6F"/>
<path id="Fill 9" fill-rule="evenodd" clip-rule="evenodd" d="M94.5589 14.3484V20.4464C94.5589 21.5524 95.1209 21.9994 96.0889 21.9994H97.2069V24.5444H95.2579C93.1839 24.5384 91.7099 23.6164 91.7099 20.8934V14.3484H90.1279V11.9014H91.7099V8.48535H94.5589V11.9014H97.2069V14.3484H94.5589Z" fill="#1E3F6F"/>
<path id="Fill 11" fill-rule="evenodd" clip-rule="evenodd" d="M106.22 14.1357C103.935 14.1357 102.475 15.9257 102.475 18.1157C102.475 20.3297 104.053 22.1427 106.267 22.1427C108.574 22.1427 110.035 20.3537 110.035 18.1627C110.035 15.9487 108.457 14.1357 106.22 14.1357ZM106.22 24.6157C102.428 24.6157 99.6255 21.7197 99.6255 18.1627C99.6255 14.5827 102.451 11.6387 106.267 11.6387C110.082 11.6387 112.885 14.5357 112.885 18.1157C112.885 21.6727 110.058 24.6157 106.22 24.6157Z" fill="#1E3F6F"/>
<path id="Fill 17" fill-rule="evenodd" clip-rule="evenodd" d="M118.101 22.0027V23.4387C118.101 23.4997 118.071 23.5547 118.018 23.5827L116.775 24.3007C116.723 24.3307 116.659 24.3307 116.61 24.3007L115.364 23.5827C115.314 23.5547 115.281 23.4997 115.281 23.4387V22.0027C115.281 21.9447 115.314 21.8897 115.364 21.8587L116.61 21.1407C116.659 21.1107 116.723 21.1107 116.775 21.1407L118.018 21.8587C118.071 21.8897 118.101 21.9447 118.101 22.0027Z" fill="#1E3F6F"/>
<path id="Fill 13" fill-rule="evenodd" clip-rule="evenodd" d="M140.13 14.1357C137.845 14.1357 136.385 15.9257 136.385 18.1157C136.385 20.3297 137.963 22.1427 140.177 22.1427C142.484 22.1427 143.944 20.3537 143.944 18.1627C143.944 15.9487 142.367 14.1357 140.13 14.1357ZM140.13 24.6157C136.338 24.6157 133.535 21.7197 133.535 18.1627C133.535 14.5827 136.361 11.6387 140.177 11.6387C143.992 11.6387 146.795 14.5357 146.795 18.1157C146.795 21.6727 143.968 24.6157 140.13 24.6157Z" fill="#1E3F6F"/>
<path id="Fill 19" fill-rule="evenodd" clip-rule="evenodd" d="M126.777 24.6022C123.08 24.5312 120.404 21.5822 120.473 18.0262C120.541 14.4712 123.329 11.5572 127.049 11.6282C129.404 11.6732 130.847 12.5722 131.977 13.8662L130.174 15.7392C129.321 14.8042 128.415 14.1512 126.978 14.1232C124.906 14.0832 123.364 15.8442 123.322 18.0342C123.279 20.2712 124.776 22.0902 126.965 22.1322C128.308 22.1582 129.309 21.5412 130.221 20.6402L131.908 22.3682C130.658 23.7102 129.203 24.6482 126.777 24.6022Z" fill="#1E3F6F"/>
<path id="Fill 15" fill-rule="evenodd" clip-rule="evenodd" d="M163.734 11.6396C166.443 11.6396 168.091 13.3586 168.091 16.3966V24.6166H165.242V17.2686C165.242 15.2906 164.323 14.2306 162.722 14.2306C161.168 14.2306 160.06 15.3136 160.06 17.3156V24.6166H157.211V17.2446C157.211 15.3136 156.268 14.2306 154.69 14.2306C153.113 14.2306 152.029 15.4086 152.029 17.3396V24.6166H149.179V11.6396H152.029V13.7836C152.83 12.6766 153.914 11.6396 155.821 11.6396C157.611 11.6396 158.859 12.5116 159.518 13.8296C160.532 12.5116 161.85 11.6396 163.734 11.6396Z" fill="#1E3F6F"/>
</g>
<path id="Full logo" fill-rule="evenodd" clip-rule="evenodd" d="M19.494 26.978H17.511L15.136 24.791V23.679L17.599 21.316V17.587L20.822 15.49L24.499 18.257L19.494 26.978ZM11.268 21.088L11.635 17.574L10.434 14.44H17.561L16.387 17.574L16.727 21.075L13.985 21.088H11.268ZM12.886 24.791L10.51 27.003H8.501L3.472 18.257L7.161 15.515L10.422 17.587V21.316L12.886 23.679V24.791ZM8.464 7.982H19.47L20.797 13.593H7.186L8.464 7.982ZM13.985 1L0 9.074V25.223L13.985 33.298L27.971 25.223V9.074L13.985 1Z" fill="#1E3F6F"/>
<g id="Left side gradient">
<path id="Clip 29" fill-rule="evenodd" clip-rule="evenodd" d="M0 9.074L13.985 1V7.982H8.464L7.187 13.593H13.985V14.44H10.435L11.635 17.574L11.269 21.088H13.985V33.298L0 25.223V9.074ZM12.886 24.791V23.679L10.422 21.316V17.587L7.161 15.515L3.472 18.257L8.501 27.003H10.51L12.886 24.791Z" fill="url(#paint0_linear_1351_24561)"/>
<mask id="mask0_1351_24561" style="mask-type:alpha" maskUnits="userSpaceOnUse" x="0" y="1" width="14" height="33">
<path id="Clip 29_2" fill-rule="evenodd" clip-rule="evenodd" d="M0 9.074L13.985 1V7.982H8.464L7.187 13.593H13.985V14.44H10.435L11.635 17.574L11.269 21.088H13.985V33.298L0 25.223V9.074ZM12.886 24.791V23.679L10.422 21.316V17.587L7.161 15.515L3.472 18.257L8.501 27.003H10.51L12.886 24.791Z" fill="white"/>
</mask>
<g mask="url(#mask0_1351_24561)">
</g>
</g>
<g id="Right side gradient">
<path id="Clip 26" fill-rule="evenodd" clip-rule="evenodd" d="M19.4939 26.978L24.4999 18.257L20.8219 15.49L17.5999 17.587V21.316L15.1359 23.679V24.791L17.5109 26.978H19.4939ZM13.9849 1L27.9709 9.074V25.223L13.9849 33.298V21.088L16.7279 21.075L16.3869 17.574L17.5619 14.44H13.9849V13.593H20.7969L19.4699 7.982H13.9849V1Z" fill="url(#paint1_linear_1351_24561)"/>
<mask id="mask1_1351_24561" style="mask-type:alpha" maskUnits="userSpaceOnUse" x="13" y="1" width="15" height="33">
<path id="Clip 26_2" fill-rule="evenodd" clip-rule="evenodd" d="M19.4939 26.978L24.4999 18.257L20.8219 15.49L17.5999 17.587V21.316L15.1359 23.679V24.791L17.5109 26.978H19.4939ZM13.9849 1L27.9709 9.074V25.223L13.9849 33.298V21.088L16.7279 21.075L16.3869 17.574L17.5619 14.44H13.9849V13.593H20.7969L19.4699 7.982H13.9849V1Z" fill="white"/>
</mask>
<g mask="url(#mask1_1351_24561)">
</g>
</g>
</g>
</g>
<defs>
<linearGradient id="paint0_linear_1351_24561" x1="3.49625" y1="1" x2="3.49625" y2="17.149" gradientUnits="userSpaceOnUse">
<stop stop-color="#021E3F"/>
<stop stop-color="#022045"/>
<stop offset="1" stop-color="#002A67"/>
</linearGradient>
<linearGradient id="paint1_linear_1351_24561" x1="24.2824" y1="32.4112" x2="24.2824" y2="17.149" gradientUnits="userSpaceOnUse">
<stop stop-color="#021E3F"/>
<stop offset="1" stop-color="#002A67"/>
</linearGradient>
</defs>
</svg>
