<svg width="99" height="30" viewBox="0 0 99 30" fill="none" xmlns="http://www.w3.org/2000/svg">
<path d="M54.208 12.7045V12.6725C54.208 12.0965 54.1067 11.5738 53.904 11.1045C53.712 10.6245 53.4293 10.2138 53.056 9.87249C52.6933 9.53115 52.2453 9.26982 51.712 9.08849C51.1893 8.89649 50.592 8.80049 49.92 8.80049H45.344V20.0005H47.808V16.6405H49.68C50.3093 16.6405 50.896 16.5605 51.44 16.4005C51.9947 16.2298 52.4747 15.9792 52.88 15.6485C53.296 15.3178 53.6213 14.9072 53.856 14.4165C54.0907 13.9258 54.208 13.3552 54.208 12.7045ZM51.712 12.7525C51.712 13.2325 51.5413 13.6378 51.2 13.9685C50.8587 14.2885 50.3787 14.4485 49.76 14.4485H47.808V11.0245H49.712C50.3307 11.0245 50.816 11.1685 51.168 11.4565C51.5307 11.7445 51.712 12.1658 51.712 12.7205V12.7525ZM66.7115 20.0005L63.9755 16.0005C64.6902 15.7338 65.2662 15.3178 65.7035 14.7525C66.1515 14.1765 66.3755 13.4352 66.3755 12.5285V12.4965C66.3755 11.3338 66.0022 10.4272 65.2555 9.77649C64.5195 9.12582 63.4848 8.80049 62.1515 8.80049H57.0315V20.0005H59.4955V16.4165H61.4315L63.8315 20.0005H66.7115ZM63.8795 12.6565C63.8795 13.1365 63.7142 13.5205 63.3835 13.8085C63.0635 14.0965 62.5995 14.2405 61.9915 14.2405H59.4955V11.0245H61.9435C62.5515 11.0245 63.0262 11.1578 63.3675 11.4245C63.7088 11.6912 63.8795 12.0912 63.8795 12.6245V12.6565ZM72.17 20.0005V8.80049H69.706V20.0005H72.17ZM85.809 18.1925L84.241 16.6085C83.8037 17.0138 83.361 17.3338 82.913 17.5685C82.4757 17.8032 81.937 17.9205 81.297 17.9205C80.817 17.9205 80.3743 17.8298 79.969 17.6485C79.5743 17.4565 79.233 17.2005 78.945 16.8805C78.6677 16.5605 78.449 16.1872 78.289 15.7605C78.129 15.3338 78.049 14.8805 78.049 14.4005V14.3685C78.049 13.8885 78.129 13.4405 78.289 13.0245C78.449 12.5978 78.673 12.2245 78.961 11.9045C79.249 11.5845 79.5903 11.3338 79.985 11.1525C80.3903 10.9712 80.8277 10.8805 81.297 10.8805C81.8623 10.8805 82.369 10.9925 82.817 11.2165C83.2757 11.4405 83.7237 11.7498 84.161 12.1445L85.729 10.3365C85.473 10.0805 85.1957 9.84582 84.897 9.63249C84.5983 9.41915 84.273 9.23782 83.921 9.08849C83.569 8.93915 83.1743 8.82182 82.737 8.73649C82.3103 8.65115 81.8357 8.60849 81.313 8.60849C80.449 8.60849 79.6597 8.76315 78.945 9.07249C78.2303 9.37115 77.617 9.78715 77.105 10.3205C76.593 10.8432 76.193 11.4565 75.905 12.1605C75.617 12.8538 75.473 13.6005 75.473 14.4005V14.4325C75.473 15.2325 75.617 15.9845 75.905 16.6885C76.193 17.3925 76.593 18.0058 77.105 18.5285C77.617 19.0405 78.225 19.4458 78.929 19.7445C79.633 20.0432 80.3957 20.1925 81.217 20.1925C81.761 20.1925 82.2517 20.1445 82.689 20.0485C83.1263 19.9632 83.5263 19.8352 83.889 19.6645C84.2623 19.4832 84.6037 19.2698 84.913 19.0245C85.2223 18.7792 85.521 18.5018 85.809 18.1925ZM97.3095 20.0005V17.8085H91.2295V15.4565H96.5095V13.2645H91.2295V10.9925H97.2295V8.80049H88.7815V20.0005H97.3095Z" fill="#7B849B"/>
<path d="M36 0V30.0003" stroke="black" stroke-opacity="0.1" stroke-width="0.5"/>
<path fill-rule="evenodd" clip-rule="evenodd" d="M13.9838 1.71338L2.3335 8.35932V21.6518L13.9838 28.2986L25.634 21.6518V8.35932L13.9838 1.71338Z" fill="#FEFEFE"/>
<path fill-rule="evenodd" clip-rule="evenodd" d="M13.9838 1.71338L2.3335 8.35932V21.6518L13.9838 28.2986L25.634 21.6518V8.35932L13.9838 1.71338ZM9.38399 7.45988H18.5525L19.6579 12.0786H8.32028L9.38399 7.45988ZM12.0257 15.3559L11.0258 12.7763H16.9628L15.984 15.3559L16.2682 18.2378L13.9838 18.2482H11.7205L12.0257 15.3559ZM14.9421 21.2961V20.381L16.9945 18.4358V15.3663L19.679 13.6399L22.7424 15.918L18.573 23.0962H16.9207L14.9421 21.2961ZM5.22591 15.918L8.29905 13.6606L11.0152 15.3663V18.4358L13.0676 20.381V21.2961L11.0892 23.117H9.4151L5.22591 15.918Z" fill="#002D72"/>
<path fill-rule="evenodd" clip-rule="evenodd" d="M18.5732 23.0962H16.9207L14.9423 21.2961V20.381L16.9947 18.4358V15.3663L19.6791 13.6399L22.7426 15.918L18.5732 23.0962ZM13.9839 1.71338V7.46001H18.5526L19.6581 12.0787H13.9839V12.7764H16.963L15.9842 15.3559L16.2683 18.2378L13.9839 18.2482V28.2986L25.6342 21.652V8.35932L13.9839 1.71338Z" fill="url(#paint0_linear_1460_81904)" style="mix-blend-mode:multiply"/>
<path fill-rule="evenodd" clip-rule="evenodd" d="M13.0678 21.2961L11.0892 23.117H9.4151L5.22591 15.918L8.29918 13.6607L11.0153 15.3663V18.4358L13.0678 20.381V21.2961ZM11.7205 18.2482L12.0257 15.3559L11.0259 12.7764H13.9838V12.0787H8.32028L9.38412 7.46001H13.9838V1.71338L2.3335 8.35932V21.652L13.9838 28.2986V18.2482H11.7205Z" fill="url(#paint1_linear_1460_81904)" style="mix-blend-mode:multiply"/>
<defs>
<linearGradient id="paint0_linear_1460_81904" x1="24.3918" y1="25.4306" x2="24.3918" y2="4.51581" gradientUnits="userSpaceOnUse">
<stop stop-color="#002D72"/>
<stop offset="1" stop-color="#002D72" stop-opacity="0.01"/>
</linearGradient>
<linearGradient id="paint1_linear_1460_81904" x1="12.7414" y1="25.4306" x2="12.7414" y2="4.51581" gradientUnits="userSpaceOnUse">
<stop stop-color="#002D72" stop-opacity="0.01"/>
<stop offset="1" stop-color="#002D72"/>
</linearGradient>
</defs>
</svg>
