<svg width="216" height="30" viewBox="0 0 216 30" fill="none" xmlns="http://www.w3.org/2000/svg">
<path d="M162.344 22.1H164.808V18.74H166.68C169.192 18.74 171.208 17.396 171.208 14.804V14.772C171.208 12.484 169.592 10.9 166.92 10.9H162.344V22.1ZM164.808 16.548V13.124H166.712C167.944 13.124 168.712 13.716 168.712 14.82V14.852C168.712 15.812 167.992 16.548 166.76 16.548H164.808Z" fill="#7B849B"/>
<path d="M174.031 22.1H176.495V18.516H178.431L180.831 22.1H183.711L180.975 18.1C182.399 17.572 183.375 16.436 183.375 14.628V14.596C183.375 13.54 183.039 12.66 182.415 12.036C181.679 11.3 180.575 10.9 179.151 10.9H174.031V22.1ZM176.495 16.34V13.124H178.943C180.143 13.124 180.879 13.668 180.879 14.724V14.756C180.879 15.7 180.191 16.34 178.991 16.34H176.495Z" fill="#7B849B"/>
<path d="M186.706 22.1H189.17V10.9H186.706V22.1Z" fill="#7B849B"/>
<path d="M198.217 22.292C200.377 22.292 201.657 21.524 202.809 20.292L201.241 18.708C200.361 19.508 199.577 20.02 198.297 20.02C196.377 20.02 195.049 18.42 195.049 16.5V16.468C195.049 14.548 196.409 12.98 198.297 12.98C199.417 12.98 200.297 13.46 201.161 14.244L202.729 12.436C201.689 11.412 200.425 10.708 198.313 10.708C194.873 10.708 192.473 13.316 192.473 16.5V16.532C192.473 19.748 194.921 22.292 198.217 22.292Z" fill="#7B849B"/>
<path d="M205.781 22.1H214.309V19.908H208.229V17.556H213.509V15.364H208.229V13.092H214.229V10.9H205.781V22.1Z" fill="#7B849B"/>
<path d="M151.254 0V30.0003" stroke="black" stroke-opacity="0.1" stroke-width="0.5"/>
<path d="M36.9513 21.8874C35.4981 21.9071 34.0993 21.3114 33.0735 20.2361C32.0478 19.1608 31.4825 17.6976 31.5066 16.1798C31.4854 14.6538 32.0524 13.1829 33.0801 12.0979C34.1077 11.0129 35.5098 10.4049 36.971 10.4105C38.5777 10.3369 40.1277 11.0384 41.1751 12.3131L39.6786 13.9996C39.0127 13.1372 38.012 12.6315 36.9513 12.6216C36.0984 12.6557 35.295 13.0487 34.7239 13.7112C34.1527 14.3736 33.8623 15.2492 33.9188 16.1387C33.8621 17.054 34.1669 17.9536 34.7623 18.6279C35.3576 19.3022 36.1914 19.6922 37.0694 19.7072C38.1251 19.6752 39.1174 19.1738 39.7967 18.3292L41.2539 19.8306C40.205 21.1792 38.614 21.9397 36.9513 21.8874Z" fill="#002D74"/>
<path d="M45.8321 21.8873H43.4199V10.431H45.8321V13.1254C46.3534 11.4522 47.8809 10.3493 49.5637 10.431V13.1048H49.4258C47.309 13.1048 45.8321 14.5343 45.8321 17.4549V21.8873Z" fill="#002D74"/>
<path d="M62.1945 10.4102L56.8581 24.9722H54.4164L55.5782 21.8973L51.0098 10.4102H53.5795L56.7006 18.8944L59.6937 10.4102H62.1945Z" fill="#002D74"/>
<path d="M69.9044 21.8665C68.4744 21.9006 67.1225 21.1868 66.3009 19.9639V25.0031H63.8887V10.4102H66.3009V12.4669C67.0719 11.1875 68.4176 10.4109 69.865 10.4102C72.356 10.4102 74.7879 12.4669 74.7879 16.1383C74.7879 19.8097 72.3757 21.8665 69.9044 21.8665ZM69.3531 12.6109C68.4896 12.6339 67.6727 13.025 67.0924 13.6932C66.5122 14.3615 66.219 15.2487 66.2812 16.1486C66.2191 17.0494 66.5119 17.9377 67.0919 18.6076C67.6719 19.2775 68.4887 19.6708 69.3531 19.6966C70.2045 19.6613 71.0043 19.2605 71.5635 18.5888C72.1226 17.9172 72.3916 17.0342 72.3068 16.1486C72.3859 15.2574 72.1096 14.3716 71.5431 13.7001C70.9766 13.0285 70.1701 12.6308 69.3137 12.6006L69.3531 12.6109Z" fill="#002D74"/>
<path d="M80.0657 12.7655V18.1646C80.0089 18.5387 80.1255 18.9187 80.38 19.1885C80.6345 19.4584 80.9965 19.586 81.3555 19.5323H82.34V21.7845H80.6564C78.894 21.7845 77.7027 20.9618 77.7027 18.5554V12.7655H76.3145V10.647H77.6535V7.62354H80.0657V10.647H82.3006V12.7655H80.0657Z" fill="#002D74"/>
<path d="M89.9403 21.8874C88.4682 21.9263 87.0436 21.3418 85.9904 20.2669C84.9372 19.192 84.3448 17.7179 84.3479 16.1798C84.2838 13.7881 85.6153 11.5949 87.7138 10.6358C89.8124 9.67656 92.2582 10.1432 93.8966 11.8153C95.535 13.4875 96.0383 16.0307 95.1688 18.2443C94.2993 20.4579 92.2309 21.899 89.9403 21.8874ZM89.9403 12.6319C89.0625 12.6272 88.2222 13.003 87.6195 13.6695C87.0167 14.3361 86.7056 15.2339 86.7601 16.149C86.7173 17.0728 87.0362 17.9751 87.6435 18.6482C88.2508 19.3214 89.0942 19.7074 89.9797 19.7175C90.861 19.7252 91.7056 19.3493 92.3108 18.6801C92.916 18.0109 93.2272 17.1087 93.1697 16.1901C93.2126 15.2645 92.8924 14.3606 92.2829 13.6872C91.6735 13.0137 90.8275 12.6289 89.9403 12.6216V12.6319Z" fill="#002D74"/>
<path d="M118.651 21.8874C117.18 21.9263 115.756 21.3415 114.704 20.2663C113.653 19.191 113.063 17.7169 113.068 16.1798C113.008 13.793 114.34 11.6067 116.435 10.6524C118.531 9.69803 120.971 10.1664 122.604 11.8365C124.238 13.5066 124.738 16.0447 123.87 18.2532C123.001 20.4616 120.937 21.8991 118.651 21.8874ZM118.651 12.6318C117.774 12.627 116.934 13.003 116.333 13.67C115.732 14.3369 115.423 15.2348 115.481 16.1489C115.435 17.0718 115.752 17.9741 116.357 18.6476C116.963 19.3211 117.806 19.7075 118.69 19.7174C119.572 19.7251 120.416 19.3493 121.021 18.68C121.627 18.0108 121.938 17.1087 121.88 16.19C121.923 15.2644 121.603 14.3606 120.994 13.6871C120.384 13.0136 119.538 12.6288 118.651 12.6215V12.6318Z" fill="#002D74"/>
<path d="M138.628 10.4105C140.922 10.4105 142.32 11.9325 142.32 14.6269V21.8874H139.908V15.388C139.908 13.6397 139.13 12.7038 137.771 12.7038C136.412 12.7038 135.526 13.6602 135.526 15.4394V21.8874H133.104V15.3674C133.104 13.6602 132.307 12.7038 130.977 12.7038C129.648 12.7038 128.723 13.7322 128.723 15.4599V21.8874H126.311V10.4105H128.723V12.3131C129.404 11.1395 130.619 10.4192 131.932 10.4105C133.254 10.346 134.486 11.1105 135.063 12.3542C135.868 11.1279 137.204 10.3995 138.628 10.4105Z" fill="#002D74"/>
<path d="M99.994 19.5837V20.8486C99.9985 20.9009 99.9708 20.9504 99.9251 20.972L98.8716 21.6096C98.8304 21.6405 98.7749 21.6405 98.7337 21.6096L97.6802 20.9926C97.638 20.9671 97.6118 20.9202 97.6113 20.8692V19.5837C97.6136 19.5305 97.639 19.4813 97.6802 19.45L98.7337 18.8124C98.7776 18.7917 98.8278 18.7917 98.8716 18.8124L99.9251 19.45C99.9689 19.4788 99.9951 19.5296 99.994 19.5837Z" fill="#002D74"/>
<path d="M107.318 21.8769C105.866 21.8667 104.48 21.2435 103.475 20.1491C102.47 19.0547 101.931 17.5821 101.982 16.0665C101.987 14.5383 102.58 13.0765 103.628 12.0105C104.677 10.9445 106.092 10.3641 107.554 10.4C109.162 10.3654 110.698 11.0956 111.729 12.3848L110.272 14.0405C109.618 13.1666 108.626 12.6425 107.564 12.6111C106.711 12.6296 105.901 13.0066 105.317 13.6569C104.734 14.3073 104.426 15.1759 104.463 16.0665C104.392 16.9809 104.683 17.8857 105.267 18.5711C105.85 19.2566 106.677 19.6632 107.554 19.6967C108.612 19.6838 109.615 19.2014 110.311 18.3701L111.739 19.9024C110.647 21.2532 109.008 21.9853 107.318 21.8769Z" fill="#002D74"/>
<path fill-rule="evenodd" clip-rule="evenodd" d="M13.9838 2.71387L2.3335 9.35981V22.6523L13.9838 29.2991L25.634 22.6523V9.35981L13.9838 2.71387Z" fill="#FEFEFE"/>
<path fill-rule="evenodd" clip-rule="evenodd" d="M13.9838 2.71387L2.3335 9.35981V22.6523L13.9838 29.2991L25.634 22.6523V9.35981L13.9838 2.71387ZM9.38399 8.46037H18.5525L19.6579 13.0791H8.32028L9.38399 8.46037ZM12.0257 16.3564L11.0258 13.7768H16.9628L15.984 16.3564L16.2682 19.2382L13.9838 19.2487H11.7205L12.0257 16.3564ZM14.9421 22.2966V21.3815L16.9945 19.4362V16.3668L19.679 14.6404L22.7424 16.9185L18.573 24.0966H16.9207L14.9421 22.2966ZM5.22591 16.9185L8.29905 14.6611L11.0152 16.3668V19.4362L13.0676 21.3815V22.2966L11.0892 24.1175H9.4151L5.22591 16.9185Z" fill="#002D72"/>
<path fill-rule="evenodd" clip-rule="evenodd" d="M18.5732 24.0966H16.9207L14.9423 22.2966V21.3815L16.9947 19.4362V16.3668L19.6791 14.6404L22.7426 16.9185L18.5732 24.0966ZM13.9839 2.71387V8.4605H18.5526L19.6581 13.0792H13.9839V13.7769H16.963L15.9842 16.3564L16.2683 19.2383L13.9839 19.2487V29.2991L25.6342 22.6525V9.35981L13.9839 2.71387Z" fill="url(#paint0_linear_1460_72431)" style="mix-blend-mode:multiply"/>
<path fill-rule="evenodd" clip-rule="evenodd" d="M13.0678 22.2966L11.0892 24.1175H9.4151L5.22591 16.9185L8.29918 14.6612L11.0153 16.3668V19.4362L13.0678 21.3815V22.2966ZM11.7205 19.2487L12.0257 16.3564L11.0259 13.7769H13.9838V13.0792H8.32028L9.38412 8.4605H13.9838V2.71387L2.3335 9.35981V22.6525L13.9838 29.2991V19.2487H11.7205Z" fill="url(#paint1_linear_1460_72431)" style="mix-blend-mode:multiply"/>
<defs>
<linearGradient id="paint0_linear_1460_72431" x1="24.3918" y1="26.4311" x2="24.3918" y2="5.5163" gradientUnits="userSpaceOnUse">
<stop stop-color="#002D72"/>
<stop offset="1" stop-color="#002D72" stop-opacity="0.01"/>
</linearGradient>
<linearGradient id="paint1_linear_1460_72431" x1="12.7414" y1="26.4311" x2="12.7414" y2="5.5163" gradientUnits="userSpaceOnUse">
<stop stop-color="#002D72" stop-opacity="0.01"/>
<stop offset="1" stop-color="#002D72"/>
</linearGradient>
</defs>
</svg>
